<?xml version="1.0" encoding="utf-8"?>
<!-- Generator: Adobe Illustrator 26.0.1, SVG Export Plug-In . SVG Version: 6.00 Build 0)  -->
<svg version="1.1" id="Слой_1" xmlns="http://www.w3.org/2000/svg" xmlns:xlink="http://www.w3.org/1999/xlink" x="0px" y="0px"
	 viewBox="0 0 24 24" style="enable-background:new 0 0 24 24;" xml:space="preserve">
<style type="text/css">
	.st0{fill:#2282FF;}
</style>
<path class="st0" d="M3.2,8.9c0.5,0,0.9-0.2,1.2-0.6v0C4.7,7.9,4.8,7.5,4.8,7C4.4,7,3.9,7.3,3.6,7.6C3.4,7.9,3.1,8.4,3.2,8.9z
	 M2.1,15c0.5,0,0.7-0.3,1.3-0.3C4,14.7,4.2,15,4.7,15c0.5,0,0.9-0.5,1.2-1c0.4-0.6,0.5-1.1,0.5-1.1c0,0-1-0.4-1.1-1.6
	c0-1,0.8-1.5,0.9-1.5C5.8,9,5,9,4.8,8.9l0,0c-0.7,0-1.2,0.4-1.5,0.4C3,9.3,2.5,9,2,9c-0.7,0-1.3,0.4-1.6,1c-0.7,1.2-0.2,3,0.5,4
	C1.2,14.5,1.6,15.1,2.1,15z M14.2,11.2h1c0.1-0.5,0.5-0.8,1.1-0.8c0.7,0,1.1,0.3,1.1,0.9v0.4L16,11.9c-1.3,0.1-2,0.6-2,1.6
	c0,1,0.7,1.6,1.8,1.6c0.7,0,1.4-0.4,1.7-0.9h0V15h1v-3.7c0-1.1-0.8-1.8-2.1-1.8C15.2,9.5,14.3,10.2,14.2,11.2z M17.4,13
	c0,0.7-0.6,1.2-1.4,1.2c-0.6,0-1-0.3-1-0.7c0-0.5,0.4-0.7,1.1-0.8l1.3-0.1V13z M8.6,7.6V15h1.1v-2.5h1.6c1.4,0,2.4-1,2.4-2.4
	s-1-2.4-2.4-2.4C11.3,7.6,8.6,7.6,8.6,7.6z M12.6,10c0,0.9-0.6,1.5-1.6,1.5H9.7V8.5H11C12,8.5,12.6,9.1,12.6,10z"/>
<polygon points="15.8,15 15.8,15 15.8,15 "/>
<path class="st0" d="M21.5,14l-1.3-4.4H19l1.9,5.4l-0.1,0.3c-0.2,0.6-0.5,0.8-1,0.8c-0.1,0-0.3,0-0.3,0V17c0.1,0,0.3,0,0.4,0l0,0
	c1.1,0,1.6-0.4,2.1-1.7l2-5.7h-1.2L21.5,14L21.5,14z"/>
</svg>
