<?xml version="1.0" encoding="utf-8"?>
<!-- Generator: Adobe Illustrator 26.0.1, SVG Export Plug-In . SVG Version: 6.00 Build 0)  -->
<svg version="1.1" id="Слой_1" xmlns="http://www.w3.org/2000/svg" xmlns:xlink="http://www.w3.org/1999/xlink" x="0px" y="0px"
	 viewBox="0 0 24 24" style="enable-background:new 0 0 24 24;" xml:space="preserve">
<style type="text/css">
	.st0{fill:#2282FF;}
</style>
<path class="st0" d="M16.3,11.2c1.2-1.8,0.8-4.3-1.1-5.6C14.6,5.2,13.8,5,13,5V4c0-0.6-0.4-1-1-1s-1,0.4-1,1v1H9V4c0-0.6-0.4-1-1-1
	S7,3.4,7,4v1H6C5.4,5,5,5.4,5,6s0.4,1,1,1h1v10H6c-0.6,0-1,0.4-1,1s0.4,1,1,1h1v1c0,0.6,0.4,1,1,1s1-0.4,1-1v-1h2v1c0,0.6,0.4,1,1,1
	s1-0.4,1-1v-1h2c2.2,0,4-1.8,4-4C19,13.3,17.9,11.8,16.3,11.2L16.3,11.2z M9,7h4c1.1,0,2,0.9,2,2s-0.9,2-2,2H9V7z M15,17H9v-4h6
	c1.1,0,2,0.9,2,2S16.1,17,15,17z"/>
</svg>
