<?xml version="1.0" encoding="utf-8"?>
<!-- Generator: Adobe Illustrator 26.0.1, SVG Export Plug-In . SVG Version: 6.00 Build 0)  -->
<svg version="1.1" id="Слой_1" xmlns="http://www.w3.org/2000/svg" xmlns:xlink="http://www.w3.org/1999/xlink" x="0px" y="0px"
	 viewBox="0 0 24 24" style="enable-background:new 0 0 24 24;" xml:space="preserve">
<style type="text/css">
	.st0{fill:#2282FF;}
</style>
<path class="st0" d="M12.6,7.5H10v7h1v-2.8v0h1.6c0.7,0,1.2-0.2,1.7-0.6l0,0c0.4-0.3,0.7-0.9,0.7-1.5c0,0,0,0,0,0
	c0-0.6-0.2-1.1-0.7-1.5l0,0C13.9,7.7,13.3,7.5,12.6,7.5C12.6,7.5,12.6,7.5,12.6,7.5z M13.6,8.7C13.9,9,14,9.3,14,9.6
	c0,0.3-0.1,0.6-0.4,0.9c-0.3,0.2-0.6,0.4-1,0.4H11V8.4h1.6c0,0,0,0,0,0C13,8.4,13.4,8.5,13.6,8.7z"/>
<polygon points="6.8,8.5 6.8,8.5 6.8,8.5 "/>
<path class="st0" d="M0.4,13.3L0.4,13.3c0.7,1.3,2.1,2.2,3.6,2.2c0,0,0,0,0,0c1.1,0,2-0.4,2.7-1C7.6,13.8,8,12.8,8,11.6
	c0-0.3,0-0.5-0.1-0.8H4.1v1.5h2.2c-0.1,0.5-0.4,0.9-0.8,1.2c-0.4,0.2-0.8,0.4-1.4,0.4h0c-1.1,0-2-0.7-2.3-1.6
	c-0.1-0.2-0.1-0.5-0.1-0.8c0-0.3,0-0.5,0.1-0.8l0,0C2.1,9.8,3,9.1,4.1,9.1c0,0,0,0,0,0c0.6,0,1.1,0.2,1.5,0.6l1.2-1.1
	c-0.7-0.6-1.6-1-2.7-1c0,0,0,0-0.1,0h0c0,0,0,0,0,0c-1.6,0-2.9,0.9-3.6,2.2C0.2,10.2,0,10.9,0,11.5C0,12.2,0.2,12.8,0.4,13.3z"/>
<polygon class="st0" points="23,9.5 21.5,13 21.5,13 20,9.5 19,9.5 21.1,14.1 19.9,16.5 20.9,16.5 24,9.5 "/>
<path class="st0" d="M19,14.3v-2.9c0-0.6-0.2-1.1-0.5-1.4c-0.4-0.3-0.9-0.5-1.5-0.5c-0.8,0-1.4,0.3-1.8,0.9l0.7,0.5
	c0.3-0.4,0.6-0.6,1.1-0.6c0,0,0,0,0,0c0.3,0,0.6,0.1,0.8,0.3l0,0c0.2,0.2,0.3,0.5,0.3,0.8c0,0,0,0,0,0v0.2c-0.3-0.2-0.7-0.3-1.2-0.3
	c-0.6,0-1.1,0.1-1.4,0.4C15.2,12,15,12.4,15,12.9c0,0,0,0,0,0c0,0.4,0.2,0.8,0.5,1.1c0.3,0.3,0.8,0.5,1.2,0.5c0.6,0,1-0.3,1.4-0.8h0
	v0.7H19z M17.8,13.3c-0.3,0.3-0.6,0.4-1,0.4c-0.2,0-0.5-0.1-0.7-0.2l0,0c-0.2-0.1-0.3-0.3-0.3-0.6c0,0,0,0,0,0
	c0-0.3,0.1-0.5,0.3-0.6c0.2-0.2,0.5-0.3,0.9-0.3c0.5,0,0.8,0.1,1.1,0.3c0,0,0,0,0,0C18.2,12.7,18,13.1,17.8,13.3z"/>
</svg>
