<svg width="74" height="16" viewBox="0 0 74 16" fill="none" xmlns="http://www.w3.org/2000/svg">
    <path d="M1 7C0.447715 7 4.82823e-08 7.44772 0 8C-4.82823e-08 8.55228 0.447715 9 1 9L1 7ZM73.7071 8.70711C74.0976 8.31659 74.0976 7.68342 73.7071 7.2929L67.3431 0.928938C66.9526 0.538414 66.3195 0.538414 65.9289 0.928938C65.5384 1.31946 65.5384 1.95263 65.9289 2.34315L71.5858 8.00001L65.9289 13.6569C65.5384 14.0474 65.5384 14.6805 65.9289 15.0711C66.3195 15.4616 66.9526 15.4616 67.3431 15.0711L73.7071 8.70711ZM1 9L73 9.00001L73 7.00001L1 7L1 9Z" fill="black"/>
</svg>