<?xml version="1.0" encoding="utf-8"?>
<!-- Generator: Adobe Illustrator 26.0.1, SVG Export Plug-In . SVG Version: 6.00 Build 0)  -->
<svg version="1.1" id="Слой_1" xmlns="http://www.w3.org/2000/svg" xmlns:xlink="http://www.w3.org/1999/xlink" x="0px" y="0px"
	 viewBox="0 0 50 50" style="enable-background:new 0 0 50 50;" xml:space="preserve">
<style type="text/css">
	.st0{fill:#2282FF;}
</style>
<path class="st0" d="M42.4,13.8C42.3,7.3,37,2,30.5,2H13.2c-0.9,0-1.7,0.6-1.8,1.5L5.3,42c-0.1,0.5,0.1,1,0.4,1.4
	C6,43.8,6.5,44.1,7,44.1h7.4L14,46.6c-0.2,1,0.5,1.9,1.5,2.1c0.1,0,0.2,0,0.3,0h8.3c0.9,0,1.6-0.6,1.8-1.5l1.8-11h5.7
	c7.4,0,13.3-6,13.3-13.4v-0.5C46.8,19,45.1,15.8,42.4,13.8z M14.7,5.6h15.8c3.9,0,7.2,2.7,8.1,6.5c-0.8-0.2-1.6-0.3-2.4-0.3h-15
	c-0.9,0-1.7,0.6-1.8,1.5l-1.1,6.6c-0.2,1,0.5,1.9,1.5,2.1c1,0.2,1.9-0.5,2.1-1.5l0.8-5.2h13.4c0.9,0,1.7,0.2,2.5,0.5
	c-0.7,5.8-5.6,10.2-11.5,10.2H19c-0.9,0-1.6,0.6-1.8,1.5l-2.2,13H9.1L14.7,5.6z M43.2,22.8c0,5.4-4.4,9.8-9.7,9.8h-7.2
	c-0.9,0-1.6,0.6-1.8,1.5l-1.8,11h-4.7l0.4-2.5l0,0l2.2-12.9h6.8c6.9,0,12.9-4.7,14.6-11.3c0.8,1.2,1.3,2.6,1.3,4V22.8z"/>
</svg>
