<?xml version="1.0" encoding="utf-8"?>
<!-- Generator: Adobe Illustrator 26.0.1, SVG Export Plug-In . SVG Version: 6.00 Build 0)  -->
<svg version="1.1" id="Слой_1" xmlns="http://www.w3.org/2000/svg" xmlns:xlink="http://www.w3.org/1999/xlink" x="0px" y="0px"
	 viewBox="0 0 50 50" style="enable-background:new 0 0 50 50;" xml:space="preserve">
<style type="text/css">
	.st0{fill:#2282FF;}
</style>
<path class="st0" d="M25,2C12.3,2,2,12.3,2,25s10.3,23,23,23s23-10.3,23-23S37.7,2,25,2z M24,4.1V10h-5.9c0.4-0.8,0.8-1.5,1.3-2.2
	C20.8,5.7,22.4,4.5,24,4.1z M26,4.1c1.7,0.4,3.3,1.6,4.7,3.7c0.4,0.6,0.9,1.4,1.2,2.2H26V4.1z M19.2,4.8c-0.5,0.6-1,1.2-1.5,1.8
	c-0.7,1-1.3,2.1-1.8,3.3h-5.5C12.8,7.6,15.8,5.8,19.2,4.8z M30.8,4.8c3.4,1,6.4,2.8,8.9,5.2h-5.5c-0.5-1.2-1.1-2.3-1.8-3.3
	C31.9,6,31.4,5.4,30.8,4.8z M8.5,12h6.6c-0.5,1.5-1,3.2-1.3,5H5.6C6.3,15.2,7.3,13.5,8.5,12z M17.2,12H24v5h-8.2
	C16.1,15.2,16.6,13.5,17.2,12z M26,12h6.8c0.6,1.5,1.1,3.2,1.4,5H26V12z M34.9,12h6.6c1.2,1.5,2.2,3.2,2.9,5h-8.2
	C35.9,15.2,35.5,13.5,34.9,12z M4.9,19h40.2c0.6,1.9,0.9,3.9,0.9,6c0,2.1-0.3,4.1-0.9,6H4.9C4.3,29.1,4,27.1,4,25
	C4,22.9,4.3,20.9,4.9,19z M11.7,20.9C10.1,20.9,9,21.9,9,23.3c0,1,0.7,1.5,1.5,2.1l0.4,0.2c0.8,0.6,1,0.9,1,1.4c0,0.5-0.4,1-1.3,1.1
	c-1.3,0.1-1.8-0.5-2-1.6l-0.1,0C8.3,27.2,8,28.3,8,28.5c0.4,0.3,1.3,0.7,2.3,0.7c2.4,0,3.4-0.9,3.4-2.4c0-1.2-1-1.9-1.8-2.5L11.5,24
	c-0.6-0.4-1-0.6-1-1.1c0-0.4,0.3-0.9,1.1-0.9c1.1-0.1,1.5,0.5,1.7,1.3l0.1,0l0.4-2c-0.1,0-0.4-0.1-0.6-0.2
	C12.6,20.9,12.1,20.8,11.7,20.9z M23.3,21v0.1c0.1,0.1,0.2,0.3-0.2,1.3c-0.5,1.1-1.4,2.8-2,3.9h0l-0.5-5.2H20l-2.7,5.2h0l-0.4-3.8
	c-0.1-0.8,0-1.1,0.3-1.4V21h-2.5l0,0.1c0.2,0.2,0.3,0.7,0.4,1.5l0.6,6.4h1l2.6-5h0l0.5,5H21c0.2-0.4,2.5-5.2,3.2-6.5
	c0.4-0.8,0.6-1.2,0.9-1.4l0-0.1L23.3,21z M28.5,21l-2.3,0v0.1c0.2,0.3,0.1,0.6-0.1,1.5l-1.4,4.9c-0.3,1-0.4,1.2-0.7,1.4l0,0.1h2.3
	l0-0.1c-0.2-0.2-0.2-0.5,0.1-1.5l1.3-4.9C28,21.7,28.1,21.2,28.5,21L28.5,21z M35,21l-4.7,0l0,0.1c0.2,0.3,0.1,0.6-0.1,1.5l-1.4,4.9
	c-0.3,0.9-0.3,1.3-0.7,1.4V29l2.3,0v-0.1c-0.2-0.2-0.1-0.6,0.1-1.5l0.7-2.4h0.2c0.9,0,1.7-0.1,1.8,0.6h0.1l0.5-1.9h-0.1
	c-0.3,0.4-1,0.3-2.1,0.3h-0.2l0.4-1.5c0.1-0.4,0.2-0.5,0.7-0.5l0.1,0c0.6,0,1.5-0.1,1.8,0.8h0.1C34.6,22.4,34.9,21.3,35,21z
	 M36.3,21c-0.2,0.5-0.4,1.4-0.6,1.8l0.1,0c0.6-0.9,1.5-0.8,2-0.8H38l-1.5,5.4c-0.2,0.9-0.3,1.3-0.7,1.5l0,0.1h2.2v-0.1
	c-0.2-0.2-0.1-0.6,0.1-1.5l1.5-5.4h0.1c0.4,0,1.3-0.1,1.7,0.8l0.1,0c0.2-0.5,0.4-1.4,0.6-1.8H36.3z M5.6,33h8.1
	c0.3,1.8,0.8,3.5,1.3,5H8.5C7.3,36.5,6.3,34.8,5.6,33z M15.8,33H24v5h-6.8C16.6,36.5,16.1,34.8,15.8,33z M26,33h8.2
	c-0.4,1.8-0.8,3.5-1.4,5H26V33z M36.3,33h8.1c-0.7,1.8-1.7,3.5-2.9,5h-6.6C35.5,36.5,35.9,34.8,36.3,33z M10.3,40h5.5
	c0.6,1.3,1.2,2.4,1.9,3.4c0.4,0.6,0.9,1.2,1.4,1.8C15.8,44.2,12.8,42.4,10.3,40z M18.1,40H24v5.9c-1.6-0.4-3.2-1.6-4.6-3.6
	C18.9,41.6,18.5,40.8,18.1,40z M26,40h5.9c-0.4,0.8-0.8,1.6-1.3,2.3c-1.4,2-3,3.2-4.6,3.6V40z M34.1,40h5.5
	c-2.4,2.4-5.5,4.2-8.9,5.2c0.5-0.5,1-1.1,1.4-1.8C33,42.4,33.6,41.3,34.1,40z"/>
</svg>
