<svg xmlns="http://www.w3.org/2000/svg" width="32" height="32" enable-background="new 0 0 32 32" viewBox="0 0 32 32"><path d="M18.8 11.678c0-.288-.137-.559-.37-.732l-7.761-5.761c-.282-.209-.661-.243-.979-.089C9.373 5.251 9.173 5.568 9.173 5.917v2.471h-6.24C2.418 8.388 2 8.797 2 9.305v4.749c0 .507.418.917.933.917h6.24v2.469c0 .349.2.666.518.821.132.064.274.096.416.096.2 0 .398-.063.563-.186l7.761-5.763C18.663 12.234 18.8 11.965 18.8 11.678zM29.067 17.031h-6.255v-2.471c0-.349-.201-.666-.519-.821-.315-.154-.695-.12-.979.091l-7.745 5.762c-.233.174-.37.443-.37.73 0 .288.137.559.37.731l7.745 5.761C21.479 26.937 21.678 27 21.878 27c.142 0 .284-.031.416-.096.317-.155.518-.473.518-.821v-2.471h6.255c.515 0 .933-.409.933-.917v-4.747C30 17.441 29.582 17.031 29.067 17.031z"/></svg>